<svg xmlns="http://www.w3.org/2000/svg" xmlns:xlink="http://www.w3.org/1999/xlink" width="500" zoomAndPan="magnify" viewBox="0 0 375 374.999991" height="500" preserveAspectRatio="xMidYMid meet" version="1.0"><defs><g/><clipPath id="de5b757ce9"><path d="M 235.679688 152.640625 L 246.480469 152.640625 L 246.480469 162.917969 L 235.679688 162.917969 Z M 235.679688 152.640625 " clip-rule="nonzero"/></clipPath><clipPath id="11c504405b"><path d="M 241.074219 152.640625 L 242.347656 156.566406 L 246.464844 156.566406 L 243.132812 158.992188 L 244.40625 162.917969 L 241.074219 160.492188 L 237.742188 162.917969 L 239.011719 158.992188 L 235.679688 156.566406 L 239.800781 156.566406 Z M 241.074219 152.640625 " clip-rule="nonzero"/></clipPath><clipPath id="7c21ba1b19"><path d="M 0.679688 0.640625 L 11.480469 0.640625 L 11.480469 10.917969 L 0.679688 10.917969 Z M 0.679688 0.640625 " clip-rule="nonzero"/></clipPath><clipPath id="3c897a0365"><path d="M 6.074219 0.640625 L 7.347656 4.566406 L 11.464844 4.566406 L 8.132812 6.992188 L 9.40625 10.917969 L 6.074219 8.492188 L 2.742188 10.917969 L 4.011719 6.992188 L 0.679688 4.566406 L 4.800781 4.566406 Z M 6.074219 0.640625 " clip-rule="nonzero"/></clipPath><clipPath id="0322ac6385"><rect x="0" width="12" y="0" height="11"/></clipPath><clipPath id="325078aa2c"><path d="M 245.613281 159.625 L 254.753906 159.625 L 254.753906 168.308594 L 245.613281 168.308594 Z M 245.613281 159.625 " clip-rule="nonzero"/></clipPath><clipPath id="801d46ed79"><path d="M 252.449219 167.605469 C 249.601562 162.957031 246.226562 162.582031 245.773438 161.679688 C 245.550781 161.082031 245.851562 160.105469 246.226562 159.804688 C 246.523438 159.582031 247.5 159.730469 247.800781 160.03125 C 248.023438 160.332031 248.023438 161.53125 247.726562 161.90625 C 247.5 162.207031 246.898438 162.28125 246.601562 162.207031 C 246.226562 162.128906 245.773438 161.753906 245.699219 161.378906 C 245.550781 161.082031 245.625 160.480469 245.773438 160.179688 C 246 159.957031 246.375 159.65625 246.898438 159.65625 C 247.949219 159.65625 250.800781 160.707031 252.074219 161.90625 C 253.425781 163.179688 254.773438 165.878906 254.699219 167.003906 C 254.625 167.605469 254.175781 168.207031 253.800781 168.28125 C 253.5 168.355469 252.449219 167.605469 252.449219 167.605469 " clip-rule="nonzero"/></clipPath><clipPath id="221559e984"><path d="M 0.613281 0.625 L 9.753906 0.625 L 9.753906 9.308594 L 0.613281 9.308594 Z M 0.613281 0.625 " clip-rule="nonzero"/></clipPath><clipPath id="6c8d32981b"><path d="M 7.449219 8.605469 C 4.601562 3.957031 1.226562 3.582031 0.773438 2.679688 C 0.550781 2.082031 0.851562 1.105469 1.226562 0.804688 C 1.523438 0.582031 2.5 0.730469 2.800781 1.03125 C 3.023438 1.332031 3.023438 2.53125 2.726562 2.90625 C 2.5 3.207031 1.898438 3.28125 1.601562 3.207031 C 1.226562 3.128906 0.773438 2.753906 0.699219 2.378906 C 0.550781 2.082031 0.625 1.480469 0.773438 1.179688 C 1 0.957031 1.375 0.65625 1.898438 0.65625 C 2.949219 0.65625 5.800781 1.707031 7.074219 2.90625 C 8.425781 4.179688 9.773438 6.878906 9.699219 8.003906 C 9.625 8.605469 9.175781 9.207031 8.800781 9.28125 C 8.5 9.355469 7.449219 8.605469 7.449219 8.605469 " clip-rule="nonzero"/></clipPath><clipPath id="d090655892"><rect x="0" width="10" y="0" height="10"/></clipPath><clipPath id="86558351f4"><path d="M 247.460938 168.878906 L 260.363281 168.878906 L 260.363281 173.679688 L 247.460938 173.679688 Z M 247.460938 168.878906 " clip-rule="nonzero"/></clipPath><clipPath id="d9761f1f74"><path d="M 0.460938 0.878906 L 13.363281 0.878906 L 13.363281 5.679688 L 0.460938 5.679688 Z M 0.460938 0.878906 " clip-rule="nonzero"/></clipPath><clipPath id="dc78ba4bbd"><rect x="0" width="14" y="0" height="6"/></clipPath><clipPath id="b7adc5fad9"><rect x="0" width="14" y="0" height="17"/></clipPath><clipPath id="5c4ef69c9b"><rect x="0" width="16" y="0" height="18"/></clipPath><clipPath id="705782b9ca"><rect x="0" width="17" y="0" height="12"/></clipPath></defs><g fill="#ff4d00" fill-opacity="1"><g transform="translate(110.493447, 197.455518)"><g><path d="M 16.9375 -6.8125 L 20.5 -3.265625 C 19.46875 -2.242188 18.253906 -1.441406 16.859375 -0.859375 C 15.472656 -0.285156 14.046875 0 12.578125 0 C 10.523438 0 8.648438 -0.492188 6.953125 -1.484375 C 5.265625 -2.472656 3.921875 -3.816406 2.921875 -5.515625 C 1.929688 -7.210938 1.4375 -9.085938 1.4375 -11.140625 C 1.4375 -13.179688 1.929688 -15.050781 2.921875 -16.75 C 3.921875 -18.445312 5.265625 -19.796875 6.953125 -20.796875 C 8.648438 -21.804688 10.523438 -22.3125 12.578125 -22.3125 C 14.046875 -22.3125 15.472656 -22.023438 16.859375 -21.453125 C 18.253906 -20.878906 19.46875 -20.082031 20.5 -19.0625 L 16.9375 -15.5 C 15.726562 -16.71875 14.273438 -17.328125 12.578125 -17.328125 C 11.453125 -17.328125 10.414062 -17.035156 9.46875 -16.453125 C 8.53125 -15.878906 7.789062 -15.128906 7.25 -14.203125 C 6.707031 -13.273438 6.4375 -12.253906 6.4375 -11.140625 C 6.4375 -10.015625 6.707031 -8.988281 7.25 -8.0625 C 7.789062 -7.132812 8.53125 -6.390625 9.46875 -5.828125 C 10.414062 -5.265625 11.453125 -4.984375 12.578125 -4.984375 C 14.335938 -4.984375 15.789062 -5.59375 16.9375 -6.8125 Z M 16.9375 -6.8125 "/></g></g></g><g fill="#ff914d" fill-opacity="1"><g transform="translate(132.430946, 197.455518)"><g><path d="M 18.765625 -22.3125 L 23.765625 -22.3125 L 23.765625 0 L 18.765625 0 L 18.765625 -2.15625 C 17.929688 -1.488281 16.988281 -0.960938 15.9375 -0.578125 C 14.882812 -0.191406 13.765625 0 12.578125 0 C 10.523438 0 8.648438 -0.492188 6.953125 -1.484375 C 5.265625 -2.472656 3.921875 -3.816406 2.921875 -5.515625 C 1.929688 -7.210938 1.4375 -9.085938 1.4375 -11.140625 C 1.4375 -13.179688 1.929688 -15.050781 2.921875 -16.75 C 3.921875 -18.445312 5.265625 -19.796875 6.953125 -20.796875 C 8.648438 -21.804688 10.523438 -22.3125 12.578125 -22.3125 C 13.765625 -22.3125 14.882812 -22.117188 15.9375 -21.734375 C 16.988281 -21.359375 17.929688 -20.816406 18.765625 -20.109375 Z M 12.578125 -4.984375 C 13.722656 -4.984375 14.769531 -5.265625 15.71875 -5.828125 C 16.664062 -6.390625 17.410156 -7.132812 17.953125 -8.0625 C 18.492188 -8.988281 18.765625 -10.015625 18.765625 -11.140625 C 18.765625 -12.285156 18.492188 -13.332031 17.953125 -14.28125 C 17.410156 -15.226562 16.664062 -15.972656 15.71875 -16.515625 C 14.769531 -17.054688 13.722656 -17.328125 12.578125 -17.328125 C 11.453125 -17.328125 10.425781 -17.054688 9.5 -16.515625 C 8.570312 -15.972656 7.828125 -15.226562 7.265625 -14.28125 C 6.710938 -13.332031 6.4375 -12.285156 6.4375 -11.140625 C 6.4375 -10.015625 6.710938 -8.988281 7.265625 -8.0625 C 7.828125 -7.132812 8.570312 -6.390625 9.5 -5.828125 C 10.425781 -5.265625 11.453125 -4.984375 12.578125 -4.984375 Z M 12.578125 -4.984375 "/></g></g></g><g fill="#ffbd59" fill-opacity="1"><g transform="translate(157.637979, 197.455518)"><g><path d="M 12.625 -22.3125 C 14.15625 -22.3125 15.601562 -22.015625 16.96875 -21.421875 C 18.332031 -20.835938 19.523438 -20.035156 20.546875 -19.015625 L 16.9375 -15.453125 C 15.789062 -16.671875 14.351562 -17.28125 12.625 -17.28125 C 11.46875 -17.28125 10.414062 -17 9.46875 -16.4375 C 8.53125 -15.875 7.789062 -15.128906 7.25 -14.203125 C 6.707031 -13.273438 6.4375 -12.253906 6.4375 -11.140625 L 6.4375 0 L 1.4375 0 L 1.4375 -22.3125 L 6.4375 -22.3125 L 6.4375 -20.109375 C 7.269531 -20.785156 8.210938 -21.320312 9.265625 -21.71875 C 10.316406 -22.113281 11.4375 -22.3125 12.625 -22.3125 Z M 12.625 -22.3125 "/></g></g></g><g fill="#00bf63" fill-opacity="1"><g transform="translate(179.622353, 197.455518)"><g><path d="M 25.6875 -22.125 C 27.476562 -22.125 29.109375 -21.679688 30.578125 -20.796875 C 32.046875 -19.921875 33.21875 -18.75 34.09375 -17.28125 C 34.976562 -15.8125 35.421875 -14.179688 35.421875 -12.390625 L 35.421875 0 L 30.4375 0 L 30.4375 -12.390625 C 30.4375 -13.703125 29.960938 -14.8125 29.015625 -15.71875 C 28.066406 -16.632812 26.957031 -17.09375 25.6875 -17.09375 C 24.332031 -17.09375 23.207031 -16.632812 22.3125 -15.71875 C 21.414062 -14.8125 20.96875 -13.703125 20.96875 -12.390625 L 20.96875 0 L 15.890625 0 L 15.890625 -12.390625 C 15.890625 -13.703125 15.429688 -14.8125 14.515625 -15.71875 C 13.609375 -16.632812 12.5 -17.09375 11.1875 -17.09375 C 9.90625 -17.09375 8.789062 -16.632812 7.84375 -15.71875 C 6.90625 -14.8125 6.4375 -13.703125 6.4375 -12.390625 L 6.4375 0 L 1.4375 0 L 1.4375 -22.3125 L 6.4375 -22.3125 L 6.4375 -20.640625 C 7.101562 -21.085938 7.835938 -21.445312 8.640625 -21.71875 C 9.441406 -21.988281 10.289062 -22.125 11.1875 -22.125 C 12.65625 -22.125 14.015625 -21.816406 15.265625 -21.203125 C 16.515625 -20.597656 17.570312 -19.769531 18.4375 -18.71875 C 19.269531 -19.769531 20.316406 -20.597656 21.578125 -21.203125 C 22.835938 -21.816406 24.207031 -22.125 25.6875 -22.125 Z M 25.6875 -22.125 "/></g></g></g><g fill="#ffffff" fill-opacity="1"><g transform="translate(216.489538, 197.455518)"><g><path d="M 12.578125 -22.3125 C 14.617188 -22.3125 16.488281 -21.804688 18.1875 -20.796875 C 19.882812 -19.796875 21.238281 -18.445312 22.25 -16.75 C 23.257812 -15.050781 23.765625 -13.179688 23.765625 -11.140625 C 23.765625 -9.085938 23.257812 -7.210938 22.25 -5.515625 C 21.238281 -3.816406 19.882812 -2.472656 18.1875 -1.484375 C 16.488281 -0.492188 14.617188 0 12.578125 0 C 10.523438 0 8.648438 -0.492188 6.953125 -1.484375 C 5.265625 -2.472656 3.921875 -3.816406 2.921875 -5.515625 C 1.929688 -7.210938 1.4375 -9.085938 1.4375 -11.140625 C 1.4375 -13.179688 1.929688 -15.050781 2.921875 -16.75 C 3.921875 -18.445312 5.265625 -19.796875 6.953125 -20.796875 C 8.648438 -21.804688 10.523438 -22.3125 12.578125 -22.3125 Z M 12.578125 -4.984375 C 13.722656 -4.984375 14.769531 -5.265625 15.71875 -5.828125 C 16.664062 -6.390625 17.410156 -7.132812 17.953125 -8.0625 C 18.492188 -8.988281 18.765625 -10.015625 18.765625 -11.140625 C 18.765625 -12.285156 18.492188 -13.332031 17.953125 -14.28125 C 17.410156 -15.226562 16.664062 -15.972656 15.71875 -16.515625 C 14.769531 -17.054688 13.722656 -17.328125 12.578125 -17.328125 C 11.453125 -17.328125 10.425781 -17.054688 9.5 -16.515625 C 8.570312 -15.972656 7.828125 -15.226562 7.265625 -14.28125 C 6.710938 -13.332031 6.4375 -12.285156 6.4375 -11.140625 C 6.4375 -10.015625 6.710938 -8.988281 7.265625 -8.0625 C 7.828125 -7.132812 8.570312 -6.390625 9.5 -5.828125 C 10.425781 -5.265625 11.453125 -4.984375 12.578125 -4.984375 Z M 12.578125 -4.984375 "/></g></g></g><g fill="#ffffff" fill-opacity="1"><g transform="translate(241.689495, 197.455518)"><g><path d="M 12.578125 -22.3125 C 14.617188 -22.3125 16.488281 -21.804688 18.1875 -20.796875 C 19.882812 -19.796875 21.238281 -18.445312 22.25 -16.75 C 23.257812 -15.050781 23.765625 -13.179688 23.765625 -11.140625 C 23.765625 -9.085938 23.257812 -7.210938 22.25 -5.515625 C 21.238281 -3.816406 19.882812 -2.472656 18.1875 -1.484375 C 16.488281 -0.492188 14.617188 0 12.578125 0 C 10.523438 0 8.648438 -0.492188 6.953125 -1.484375 C 5.265625 -2.472656 3.921875 -3.816406 2.921875 -5.515625 C 1.929688 -7.210938 1.4375 -9.085938 1.4375 -11.140625 C 1.4375 -13.179688 1.929688 -15.050781 2.921875 -16.75 C 3.921875 -18.445312 5.265625 -19.796875 6.953125 -20.796875 C 8.648438 -21.804688 10.523438 -22.3125 12.578125 -22.3125 Z M 12.578125 -4.984375 C 13.722656 -4.984375 14.769531 -5.265625 15.71875 -5.828125 C 16.664062 -6.390625 17.410156 -7.132812 17.953125 -8.0625 C 18.492188 -8.988281 18.765625 -10.015625 18.765625 -11.140625 C 18.765625 -12.285156 18.492188 -13.332031 17.953125 -14.28125 C 17.410156 -15.226562 16.664062 -15.972656 15.71875 -16.515625 C 14.769531 -17.054688 13.722656 -17.328125 12.578125 -17.328125 C 11.453125 -17.328125 10.425781 -17.054688 9.5 -16.515625 C 8.570312 -15.972656 7.828125 -15.226562 7.265625 -14.28125 C 6.710938 -13.332031 6.4375 -12.285156 6.4375 -11.140625 C 6.4375 -10.015625 6.710938 -8.988281 7.265625 -8.0625 C 7.828125 -7.132812 8.570312 -6.390625 9.5 -5.828125 C 10.425781 -5.265625 11.453125 -4.984375 12.578125 -4.984375 Z M 12.578125 -4.984375 "/></g></g></g><g clip-path="url(#de5b757ce9)"><g clip-path="url(#11c504405b)"><g transform="matrix(1, 0, 0, 1, 235, 152)"><g clip-path="url(#0322ac6385)"><g clip-path="url(#7c21ba1b19)"><g clip-path="url(#3c897a0365)"><path fill="#5ce6d5" d="M 0.679688 0.640625 L 11.480469 0.640625 L 11.480469 10.917969 L 0.679688 10.917969 Z M 0.679688 0.640625 " fill-opacity="1" fill-rule="nonzero"/></g></g></g></g></g></g><g clip-path="url(#325078aa2c)"><g clip-path="url(#801d46ed79)"><g transform="matrix(1, 0, 0, 1, 245, 159)"><g clip-path="url(#d090655892)"><g clip-path="url(#221559e984)"><g clip-path="url(#6c8d32981b)"><rect x="-327.5" width="540" fill="#ffffff" height="539.999987" y="-241.499998" fill-opacity="1"/></g></g></g></g></g></g><g clip-path="url(#86558351f4)"><g transform="matrix(1, 0, 0, 1, 247, 168)"><g clip-path="url(#dc78ba4bbd)"><g clip-path="url(#d9761f1f74)"><path fill="#ffffff" d="M 0.460938 0.878906 L 13.363281 0.878906 L 13.363281 5.679688 L 0.460938 5.679688 Z M 0.460938 0.878906 " fill-opacity="1" fill-rule="nonzero"/></g></g></g></g><g transform="matrix(1, 0, 0, 1, 245, 156)"><g clip-path="url(#b7adc5fad9)"><g fill="#000000" fill-opacity="1"><g transform="translate(7.575206, 13.040681)"><g><path d="M 1.203125 -5.046875 L -1.46875 -3.296875 L -1.90625 -3.984375 L 0.765625 -5.734375 Z M 1.203125 -5.046875 "/></g></g></g></g></g><g transform="matrix(1, 0, 0, 1, 242, 153)"><g clip-path="url(#5c4ef69c9b)"><g fill="#000000" fill-opacity="1"><g transform="translate(9.22331, 14.580419)"><g><path d="M 0.796875 -5.609375 L -1.921875 -3.453125 L -2.46875 -4.140625 L 0.25 -6.296875 Z M 0.796875 -5.609375 "/></g></g></g></g></g><g transform="matrix(1, 0, 0, 1, 239, 155)"><g clip-path="url(#705782b9ca)"><g fill="#000000" fill-opacity="1"><g transform="translate(10.965756, 9.723015)"><g><path d="M -1.59375 -4.75 L -2.890625 -1.96875 L -3.609375 -2.296875 L -2.3125 -5.078125 Z M -1.59375 -4.75 "/></g></g></g></g></g></svg>